PathFileType	4	(X/Y/Z)	Run_500 04
DataRate	CameraRate	NumFrames	NumMarkers	Units	OrigDataRate	OrigDataStartFrame	OrigNumFrames
100	100	4	41	mm	100	101	125
Frame#	Time	RASI			RPSI			RTH1			RTH2			RTH3			LTH1			LTH2			LTH3			RTB1			RTB2			RTB3			LTB1			LTB2			LTB3			RCAL			RTOE			RMT5			LCAL			LTOE			LACR			RACR			CLAV			C7			RUA1			RUA2			RUA3			RLEL			RMEL			LUA1			LUA2			LUA3			LLEL			LMEL			RFAsuperior			RFAradius			RFAulna			LFAsuperior			LFAradius			LFAulna			LPSI			LASI			
		X1	Y1	Z1	X2	Y2	Z2	X3	Y3	Z3	X4	Y4	Z4	X5	Y5	Z5	X6	Y6	Z6	X7	Y7	Z7	X8	Y8	Z8	X9	Y9	Z9	X10	Y10	Z10	X11	Y11	Z11	X12	Y12	Z12	X13	Y13	Z13	X14	Y14	Z14	X15	Y15	Z15	X16	Y16	Z16	X17	Y17	Z17	X18	Y18	Z18	X19	Y19	Z19	X20	Y20	Z20	X21	Y21	Z21	X22	Y22	Z22	X23	Y23	Z23	X24	Y24	Z24	X25	Y25	Z25	X26	Y26	Z26	X27	Y27	Z27	X28	Y28	Z28	X29	Y29	Z29	X30	Y30	Z30	X31	Y31	Z31	X32	Y32	Z32	X33	Y33	Z33	X34	Y34	Z34	X35	Y35	Z35	X36	Y36	Z36	X37	Y37	Z37	X38	Y38	Z38	X39	Y39	Z39	X40	Y40	Z40	X41	Y41	Z41	

94	1.19	1161.886293	993.970159	-303.82776	994.2432240000001	1061.893552	-383.974307	1062.961645	813.8662440000001	-269.560802	1047.520648	714.288807	-296.803634	924.264983	616.040679	-305.794856	1118.082665	875.113217	-624.1573509999999	1227.595672	777.126594	-596.399243	1203.039977	641.472898	-579.988471	724.542412	452.995095	-380.748004	616.268343	478.785602	-329.152119	543.284439	448.60489	-389.231041	1351.04164	403.629771	-489.570397	1335.336066	331.526776	-524.243459	1380.588133	271.297647	-462.169886	458.147455	551.480464	-359.230022	396.185191	340.393164	-445.824463	354.58421	327.508035	-378.622641	1324.020849	98.02810599999999	-425.122125	1536.639473	207.593775	-430.948475	1130.864649	1555.34592	-577.339744	1214.668247	1533.924292	-276.132556	1222.70698	1470.712775	-413.45766	1105.606625	1564.061059	-409.423237	1202.504191	1416.509726	-176.29332	1141.175061	1409.796892	-147.017534	1162.842978	1346.561859	-123.498201	1139.062539	1269.936115	-90.139779	1060.49917	1261.309853	-148.559773	1014.634042	1531.60142	-632.481534	947.6094849999999	1515.638318	-570.244104	905.778577	1476.202968	-638.43128	839.617931	1440.786613	-648.995731	843.7836589999999	1405.435455	-562.583158	1208.808325	1278.462628	-147.382569	1292.223135	1299.017405	-292.622792	1306.480472	1230.723736	-270.28588	891.756684	1377.698913	-682.920169	1042.783416	1273.520956	-676.85499	995.672295	1228.147991	-705.517411	999.707147	1066.877255	-477.653631	1170.687268	1013.140793	-558.290799	
95	1.2	1162.220345	990.391839	-302.352057	993.47114	1055.852579	-381.954443	1065.569602	809.432687	-267.747344	1051.490007	709.518833	-292.789695	931.68344	607.560081	-303.87506	1115.851342	871.080888	-623.579053	1221.57372	765.906036	-599.143901	1195.078992	633.8571439999999	-578.657336	733.119882	455.399824	-377.90143	628.229634	492.770762	-326.917945	552.70673	468.68186	-386.543897	1346.255841	398.96754	-488.39451	1330.900688	326.434277	-523.0579750000001	1376.954175	266.715677	-461.204727	477.182722	580.11184	-358.414444	396.96661	372.384833	-437.880266	355.889592	365.00719	-369.313946	1322.369628	91.611	-423.609379	1533.588583	204.988165	-430.446199	1133.795003	1548.188517	-579.22955	1214.6169	1526.954823	-276.160611	1222.87541	1463.757883	-413.305121	1106.696663	1559.089008	-411.521924	1196.660053	1410.436317	-175.988434	1134.358789	1405.693394	-148.559071	1154.046213	1341.15166	-124.227893	1127.707076	1265.396861	-91.691365	1050.469269	1259.49572	-151.387418	1018.117992	1520.100653	-635.498199	948.978097	1504.078537	-576.742493	911.23391	1460.142522	-644.784183	846.534867	1422.155774	-655.800489	850.168305	1387.830734	-568.765434	1199.151502	1266.184548	-146.648166	1288.625211	1274.299034	-289.892672	1296.844222	1206.06481	-265.33731	901.93843	1361.496371	-688.424433	1056.630157	1263.789475	-679.255152	1011.772686	1217.077712	-709.888051	997.574281	1061.960522	-475.579772	1168.577187	1008.747539	-556.832161	
96	1.21	1161.871387	986.036625	-300.649466	992.465466	1049.362255	-379.781234	1068.103544	804.406219	-265.659424	1056.185264	704.109886	-288.515973	939.945669	598.44909	-301.192614	1113.852022	865.562778	-622.469919	1217.599268	757.025889	-602.114742	1191.599463	628.643586	-576.243318	744.578296	456.643255	-373.94567	643.5466699999999	504.811836	-323.959734	566.432026	486.1342	-383.714825	1339.3926	391.828471	-487.25742	1323.542177	319.048889	-522.294302	1368.16788	258.341508	-460.872528	499.929815	605.164793	-358.724331	404.519959	400.726662	-429.489846	364.416671	398.878534	-359.690104	1310.495994	86.45070200000001	-423.190326	1523.895824	193.178009	-431.239295	1136.603694	1539.8578	-581.730854	1213.4674	1518.948422	-275.928445	1222.978773	1455.694294	-413.294469	1107.684382	1552.408266	-413.951528	1189.267326	1403.333939	-175.652468	1126.142472	1400.107109	-150.177806	1143.961811	1333.813607	-125.831999	1115.278369	1259.196127	-93.844864	1040.000524	1255.897114	-155.260671	1021.932771	1507.195661	-639.8358480000001	950.525617	1490.504956	-584.140698	917.186136	1442.771837	-651.986504	854.319115	1401.925842	-663.813217	856.932933	1368.65909	-576.245828	1188.123633	1252.276232	-146.028412	1283.140028	1247.305635	-286.096046	1285.249524	1179.652756	-259.6913	913.056521	1343.842737	-694.579704	1071.250678	1252.814358	-681.25477	1028.908765	1204.765782	-713.622427	995.242084	1056.413092	-473.377262	1166.271583	1003.734108	-555.24665	
97	1.22	1160.873753	981.0929180000001	-298.646093	991.027426	1042.558729	-377.630354	1070.675582	798.660781	-263.318615	1062.168241	697.902016	-284.02059	949.450834	588.708717	-297.704724	1111.833193	858.560933	-620.881207	1215.432849	751.595307	-603.193158	1190.665131	623.877271	-573.651567	758.804006	456.424415	-368.949071	662.0565350000001	514.5578870000001	-320.318006	584.000603	500.318825	-380.525886	1330.612971	381.56588	-486.526734	1312.763988	309.121237	-521.73739	1354.689107	246.344885	-461.025458	525.877329	626.106437	-360.020984	417.958023	424.662181	-420.735845	378.757442	428.316912	-350.271431	1289.06114	84.674415	-422.983513	1507.640441	171.145199	-432.886228	1139.399235	1530.171048	-584.633683	1211.241619	1510.128724	-275.274301	1223.088088	1446.793225	-413.438601	1108.774603	1544.442766	-416.552286	1180.472439	1395.120903	-175.317443	1116.722663	1393.024544	-151.727066	1132.73892	1324.659268	-128.31486	1101.855391	1251.506019	-96.561718	1029.10378	1250.651715	-160.122797	1026.240249	1492.958897	-645.49422	952.388279	1474.880414	-592.542649	923.603522	1424.087108	-659.919255	863.031067	1380.350471	-672.808734	864.1455979999999	1348.127777	-584.723203	1175.839482	1237.198587	-145.598078	1275.727859	1218.707588	-281.181438	1271.753875	1152.092191	-253.148369	925.152433	1324.891655	-701.272998	1086.46825	1240.735039	-682.775052	1046.862576	1191.274755	-716.379227	993.111794	1049.994515	-471.263866	1164.18215	997.84746	-553.8625520000001	
